<?xml version="1.0" encoding="UTF-8" standalone="no"?>
<!-- Created with Inkscape (http://www.inkscape.org/) -->

<svg
   xmlns:dc="http://purl.org/dc/elements/1.1/"
   xmlns:cc="http://creativecommons.org/ns#"
   xmlns:rdf="http://www.w3.org/1999/02/22-rdf-syntax-ns#"
   xmlns:svg="http://www.w3.org/2000/svg"
   xmlns="http://www.w3.org/2000/svg"
   xmlns:sodipodi="http://sodipodi.sourceforge.net/DTD/sodipodi-0.dtd"
   xmlns:inkscape="http://www.inkscape.org/namespaces/inkscape"
   width="210mm"
   height="297mm"
   viewBox="0 0 210 297"
   version="1.1"
   id="svg8"
   inkscape:version="0.92.5 (2060ec1f9f, 2020-04-08)"
   sodipodi:docname="info_icon.svg"
   inkscape:export-filename="F:\git\match-three\assets\icon_timer.png"
   inkscape:export-xdpi="10.112676"
   inkscape:export-ydpi="10.112676">
  <defs
     id="defs2" />
  <sodipodi:namedview
     id="base"
     pagecolor="#000000"
     bordercolor="#666666"
     borderopacity="1.0"
     inkscape:pageopacity="0"
     inkscape:pageshadow="2"
     inkscape:zoom="0.98994949"
     inkscape:cx="260.96757"
     inkscape:cy="491.31903"
     inkscape:document-units="mm"
     inkscape:current-layer="layer9"
     showgrid="false"
     inkscape:window-width="1920"
     inkscape:window-height="1027"
     inkscape:window-x="-8"
     inkscape:window-y="-8"
     inkscape:window-maximized="1" />
  <metadata
     id="metadata5">
    <rdf:RDF>
      <cc:Work
         rdf:about="">
        <dc:format>image/svg+xml</dc:format>
        <dc:type
           rdf:resource="http://purl.org/dc/dcmitype/StillImage" />
        <dc:title></dc:title>
      </cc:Work>
    </rdf:RDF>
  </metadata>
  <g
     inkscape:groupmode="layer"
     id="layer8"
     inkscape:label="Timer"
     style="display:inline">
    <g
       inkscape:groupmode="layer"
       id="layer9"
       inkscape:label="Circle Base"
       style="display:inline">
      <path
         style="opacity:1;fill:#ffffff;fill-opacity:1;stroke:#1fa71d;stroke-width:0;stroke-linecap:round;stroke-linejoin:miter;stroke-miterlimit:4;stroke-dasharray:none;stroke-opacity:1"
         d="M 199.54492 483.625 A 94.488189 94.488189 0 0 0 105.05664 578.11328 A 94.488189 94.488189 0 0 0 199.54492 672.60156 A 94.488189 94.488189 0 0 0 294.0332 578.11328 A 94.488189 94.488189 0 0 0 199.54492 483.625 z M 244.07422 522.24805 C 246.5065 522.30944 248.87561 523.19684 250.74219 524.93945 C 255.00866 528.92258 254.99174 535.82441 250.70508 540.41602 L 205.73828 588.58398 C 201.45162 593.17559 194.5653 593.66476 190.29883 589.68164 C 186.03235 585.69852 186.04928 578.79473 190.33594 574.20312 L 235.30273 526.03711 C 237.71398 523.45433 240.947 522.16912 244.07422 522.24805 z "
         transform="scale(0.26458333)"
         id="path1027"
         inkscape:export-filename="F:\git\match-three\assets\icon_timer.png"
         inkscape:export-xdpi="15.24"
         inkscape:export-ydpi="15.24" />
    </g>
    <g
       style="display:inline"
       inkscape:label="Hands"
       id="g1079"
       inkscape:groupmode="layer" />
  </g>
  <g
     inkscape:groupmode="layer"
     id="layer12"
     inkscape:label="Dew Drop"
     style="display:inline">
    <g
       inkscape:groupmode="layer"
       id="layer13"
       inkscape:label="Triangle Base">
      <path
         style="opacity:1;fill:#ffffff;fill-opacity:1;stroke:#ffffff;stroke-width:0;stroke-linecap:round;stroke-linejoin:miter;stroke-miterlimit:4;stroke-dasharray:none;stroke-opacity:1"
         d="m 435.39062,260.23633 c -33.76201,0.33033 -108.74546,145.09718 -91.44335,176.54492 17.3021,31.44774 171.10649,29.94214 187.5664,-1.83594 16.45991,-31.77807 -62.36103,-175.03932 -96.12305,-174.70898 z m 11.09766,33.99219 a 15.11811,15.11811 0 0 1 15.11719,15.11914 15.11811,15.11811 0 0 1 -15.11719,15.11718 15.11811,15.11811 0 0 1 -15.11914,-15.11718 15.11811,15.11811 0 0 1 15.11914,-15.11914 z"
         transform="scale(0.26458333)"
         id="path1134"
         inkscape:connector-curvature="0"
         inkscape:export-filename="F:\git\match-three\assets\icon_tile.png"
         inkscape:export-xdpi="14.97"
         inkscape:export-ydpi="14.97" />
    </g>
  </g>
</svg>
